<svg version="1.1" xmlns="http://www.w3.org/2000/svg" viewBox="0 0 1150.2573552394338 825.1289698472024" width="2300.5147104788675" height="1650.2579396944047">
  <!-- svg-source:excalidraw -->
  
  <defs>
    <style>
      @font-face {
        font-family: "Virgil";
        src: url("https://excalidraw.com/Virgil.woff2");
      }
      @font-face {
        font-family: "Cascadia";
        src: url("https://excalidraw.com/Cascadia.woff2");
      }
    </style>
  </defs>
  <rect x="0" y="0" width="1150.2573552394338" height="825.1289698472024" fill="#ffffff"></rect><g stroke-linecap="round" transform="translate(425.72203311847613 421.11442931998533) rotate(0 49.92246199756522 30.52611496859798)"><path d="M1.91 -0.55 C31.66 -1.13, 58.92 1.55, 99.04 1.53 M0.76 0.43 C23.29 1.85, 47.07 1.82, 98.91 0.17 M100.32 -1.47 C100.97 20.22, 99.03 38.98, 100.45 62.98 M99.16 0.57 C99.9 17.04, 100.95 34.63, 100.5 61.56 M98.35 60.75 C78.21 62.57, 58.33 62.79, 1.97 59.79 M99.6 60.1 C77.83 60.69, 55.97 61.07, 0.11 60.74 M0.68 59.85 C-0.23 46.24, -0.9 32.47, 1.56 0.87 M-0.94 61.63 C-1.14 41.79, 0.54 23.95, -0.53 -0.22" stroke="#000000" stroke-width="1" fill="none"></path></g><g transform="translate(437.4147521814583 429.36037923802996) rotate(0 43.5 23)"><text x="0" y="32" font-family="Virgil, Segoe UI Emoji" font-size="36px" fill="#000000" text-anchor="start" style="white-space: pre;" direction="ltr">Julia</text></g><g stroke-linecap="round"><g transform="translate(645.2298143656873 186.306839136356) rotate(0 16.83243185314774 -27.112497641821456)"><path d="M0.05 0.77 C5.67 -8.25, 27.09 -43.96, 32.65 -53.11 M-1.38 0.12 C4.72 -9.34, 29.36 -46.13, 35.05 -54.99" stroke="#000000" stroke-width="1" fill="none"></path></g><g transform="translate(645.2298143656873 186.306839136356) rotate(0 16.83243185314774 -27.112497641821456)"><path d="M29.41 -26.81 C30.12 -31.73, 29.96 -39.38, 35.47 -55.51 M28.1 -25.06 C30.67 -31.84, 31.63 -38.7, 35.93 -54.55" stroke="#000000" stroke-width="1" fill="none"></path></g><g transform="translate(645.2298143656873 186.306839136356) rotate(0 16.83243185314774 -27.112497641821456)"><path d="M12.26 -38.08 C16.71 -40.62, 20.19 -45.88, 35.47 -55.51 M10.96 -36.34 C17.23 -40.57, 21.92 -44.97, 35.93 -54.55" stroke="#000000" stroke-width="1" fill="none"></path></g></g><g stroke-linecap="round" transform="translate(753.6550492573402 197.19316906322197) rotate(0 83.73734929520054 27.63442722463793)"><path d="M0.84 -0.16 C37.16 1.27, 75.83 -0.08, 168.24 -0.81 M-0.09 0.13 C43.5 -0.46, 85.43 -0.6, 167.93 0.8 M167.5 0.78 C165.76 10, 169.09 22.78, 166.5 56.68 M167.55 -0.42 C168.29 20.52, 167.49 42.37, 167.94 54.37 M169.43 55.49 C102.86 56.46, 36.64 54.91, 1.7 55.09 M168.21 54.35 C126.83 55.84, 87.16 54.95, -0.79 55.02 M-0.13 54.95 C0.33 37.2, -0.94 17.37, 1.93 0.88 M0.44 55.12 C1.34 43.55, 0.03 30.78, 0.71 0.34" stroke="#000000" stroke-width="1" fill="none"></path></g><g transform="translate(759.9464029170657 212.7355533674561) rotate(0 78 12.5)"><text x="0" y="17" font-family="Virgil, Segoe UI Emoji" font-size="19.455244742543304px" fill="#000000" text-anchor="start" style="white-space: pre;" direction="ltr">High-performance</text></g><g stroke-linecap="round" transform="translate(424.99436136687524 221.5499764618542) rotate(0 50.821127111161246 34.4418629582837)"><path d="M0.79 0.68 C39.19 1.65, 74.07 -1.29, 101.09 1.6 M-0.39 -0.63 C25.11 -0.4, 47.64 1.24, 101.45 0.77 M99.97 0.36 C100.41 19.88, 101.66 36.16, 100.99 69.06 M102.16 0.48 C101.55 22.34, 101.62 41.94, 102.4 69.66 M101.13 68.19 C59.73 68.12, 20.43 70.62, 1.79 69.78 M101.01 68.33 C75.84 69.52, 51.93 67.77, 0.9 69.25 M1.88 68.31 C1.21 51.36, -1.49 33.07, 0 0.74 M-0.83 68.34 C0.26 44.54, -0.09 20.81, -0.66 -0.93" stroke="#000000" stroke-width="1" fill="none"></path></g><g stroke-linecap="round" transform="translate(375.15169627157434 622.5256104876628) rotate(0 71.2852326894751 20.701596358862503)"><path d="M0.47 -1.33 C42.62 -0.3, 85.34 -0.01, 141.63 -1.96 M0.47 -0.51 C38.43 0.25, 78.52 -0.04, 141.74 0.71 M141.53 -1.4 C141.22 12, 142.01 24.84, 142.95 40.89 M142.87 0.36 C143.13 11.54, 142.31 23.12, 142.34 40.65 M141.84 41.72 C88.49 42.09, 33.87 41.86, -0.5 42.98 M142.34 41.29 C86.38 40.11, 30.85 41.41, 0.68 40.41 M-1.38 43.3 C1.73 24.67, 0.58 10.29, -1.97 1.66 M-0.85 42.28 C-0.99 28.43, -0.48 16, -0.67 -0.46" stroke="#000000" stroke-width="1" fill="none"></path></g><g transform="translate(384.4784342052799 630.46350233672) rotate(0 62 12.5)"><text x="0" y="17" font-family="Virgil, Segoe UI Emoji" font-size="19.455244742543304px" fill="#000000" text-anchor="start" style="white-space: pre;" direction="ltr">JIT compiled</text></g><g stroke-linecap="round" transform="translate(580.9096276966883 327.51011122562863) rotate(0 81.36763353829815 24.34994794507935)"><path d="M-1.18 1.38 C45.13 -1.22, 90.11 0.79, 164.43 0.97 M0.8 -0.62 C41.62 -0.06, 81.9 -0.18, 163.61 -0.92 M164.28 -0.68 C162.05 9.18, 161.41 21.52, 161.86 50.25 M162.82 0.1 C162.91 15.89, 163.13 31.54, 162.44 49.69 M164.29 50.64 C116.87 50.25, 71.94 49.24, -1.56 47.77 M163.18 48.18 C117.78 50.05, 72.66 49.61, -0.61 49.45 M0.73 48.14 C-0.9 32.66, 2.37 12.26, 0.73 1.21 M0.37 49.16 C-1.26 39.75, -1.24 28.52, -0.33 -0.54" stroke="#000000" stroke-width="1" fill="none"></path></g><g transform="translate(586.7025028158304 341.4641726237031) rotate(0 76 12.5)"><text x="0" y="17" font-family="Virgil, Segoe UI Emoji" font-size="19.455244742543304px" fill="#000000" text-anchor="start" style="white-space: pre;" direction="ltr">Machine learning</text></g><g transform="translate(433.9677130191244 233.41311593181905) rotate(0 47.5 24.5)"><text x="0" y="17.5" font-family="Virgil, Segoe UI Emoji" font-size="19.455244742543304px" fill="#000000" text-anchor="start" style="white-space: pre;" direction="ltr">Scientific </text><text x="0" y="42" font-family="Virgil, Segoe UI Emoji" font-size="19.455244742543304px" fill="#000000" text-anchor="start" style="white-space: pre;" direction="ltr">computing</text></g><g stroke-linecap="round" transform="translate(213.18382238028357 434.05169297262717) rotate(0 91.94313074471665 25.327916763949688)"><path d="M1.21 -0.13 C50.22 1.85, 103.27 -0.86, 184.68 0.68 M-0.98 -0.28 C71.5 0.25, 141.88 0.35, 183.5 -0.63 M185.31 -0.37 C184.96 18.95, 182.38 37.86, 182.22 51.01 M183.63 -0.33 C184.36 13.08, 184.57 26.31, 184.41 51.14 M182.38 52.17 C135.67 52.18, 83.61 50.55, -0.51 49.96 M184.68 51.55 C143.49 49.67, 101.97 50.08, -0.63 50.11 M-2 52.46 C0.35 37.97, -1.76 28.3, 1.88 -0.57 M0.83 50.66 C0.06 34.06, -1.16 17.43, -0.83 -0.54" stroke="#000000" stroke-width="1" fill="none"></path></g><g transform="translate(226.3552207683731 446.002229049834) rotate(0 81.5 12.5)"><text x="0" y="17" font-family="Virgil, Segoe UI Emoji" font-size="19.455244742543304px" fill="#000000" text-anchor="start" style="white-space: pre;" direction="ltr">Rich type system</text></g><g transform="translate(158.03099887719964 116.75097781300585) rotate(0 83 12.5)"><text x="0" y="17" font-family="Virgil, Segoe UI Emoji" font-size="19.455244742543304px" fill="#000000" text-anchor="start" style="white-space: pre;" direction="ltr">Powerful libraries</text></g><g stroke-linecap="round" transform="translate(363.81448427709745 741.4802733809871) rotate(0 65.18700582179736 30.787328370530815)"><path d="M-0.63 1.26 C40.63 0.57, 78.91 -2.31, 130.79 0.1 M0.6 -0.29 C35.35 1.08, 73 1, 131 0.88 M130.28 1.96 C130.04 20.34, 131.2 40.96, 129.57 63.57 M130.98 -0.07 C129.67 17.9, 130.5 33.76, 130.77 61.91 M128.41 61.02 C81.85 59.73, 31.07 59.93, -0.78 60.31 M131.09 61.39 C80.63 60.16, 28.83 59.8, -0.84 61.75 M-0.51 60.92 C-0.3 46, 0.12 30.74, 1.04 0.96 M-0.75 62.33 C0.17 45.88, -0.97 28.4, -0.26 -0.35" stroke="#000000" stroke-width="1" fill="none"></path></g><g transform="translate(379.87158353733173 747.9041051192213) rotate(0 56.5 24.5)"><text x="0" y="17.5" font-family="Virgil, Segoe UI Emoji" font-size="19.455244742543304px" fill="#000000" text-anchor="start" style="white-space: pre;" direction="ltr">Compiler </text><text x="0" y="42" font-family="Virgil, Segoe UI Emoji" font-size="19.455244742543304px" fill="#000000" text-anchor="start" style="white-space: pre;" direction="ltr">optimisation</text></g><g stroke-linecap="round"><g transform="translate(470.28585135732 418.98622145468187) rotate(0 13.246693422119506 -62.3653461738336)"><path d="M0.72 0.73 C4.97 -20.05, 20.53 -104.64, 24.53 -125.46 M-0.36 0.06 C4.36 -20.45, 22.85 -103.02, 26.85 -124.01" stroke="#000000" stroke-width="1" fill="none"></path></g><g transform="translate(470.28585135732 418.98622145468187) rotate(0 13.246693422119506 -62.3653461738336)"><path d="M32.32 -95.54 C30.08 -101.67, 31.3 -106.68, 28.8 -123.42 M30.76 -95.28 C29.36 -102.42, 28.91 -110.22, 26.94 -123.08" stroke="#000000" stroke-width="1" fill="none"></path></g><g transform="translate(470.28585135732 418.98622145468187) rotate(0 13.246693422119506 -62.3653461738336)"><path d="M12.23 -99.76 C14.35 -105.08, 19.95 -109.17, 28.8 -123.42 M10.68 -99.49 C14.47 -105.73, 19.25 -112.44, 26.94 -123.08" stroke="#000000" stroke-width="1" fill="none"></path></g></g><g stroke-linecap="round" transform="translate(431.3142001276532 353.7712121203623) rotate(0 43.669804727281075 15.900925641487902)"><path d="M-0.4 1.44 L88.01 1.97 L87.92 30.62 L-1.96 30.8" stroke="none" stroke-width="0" fill="white"></path><path d="M-0.34 -1.26 C25.23 2.52, 51.6 0.54, 88.44 1.72 M0.64 0.1 C17.17 1, 36.53 0.52, 87.75 -0.78 M85.78 -1.82 C87.09 10.84, 86.62 17.77, 89.06 32.18 M87.07 -0.41 C88.37 9.75, 88.02 21.61, 87.66 31.81 M89.26 31.76 C68.43 33.51, 52.74 30.91, -1.04 31.71 M86.73 31.38 C52.45 32, 18.75 31.06, 0 31.57 M-0.36 33.49 C-0.8 23.42, 1.66 15.57, -1.81 0.74 M-0.4 31.26 C0 23.55, 0.58 15.96, -0.6 0.36" stroke="transparent" stroke-width="1" fill="none"></path></g><g transform="translate(435.6269644871993 360.4543370457978) rotate(0 34 10)"><text x="0" y="14" font-family="Virgil, Segoe UI Emoji" font-size="15.939906664182585px" fill="#000000" text-anchor="start" style="white-space: pre;" direction="ltr">good for</text></g><g stroke-linecap="round"><g transform="translate(509.02404240042495 356.1875878369208) rotate(0 26.596612873353706 -30.607661037555577)"><path d="M-1.17 -0.44 C7.64 -10.44, 43.02 -50.85, 51.96 -60.78 M0.41 -1.71 C9.71 -11.49, 45.83 -50.04, 54.37 -59.51" stroke="#000000" stroke-width="1" fill="none"></path></g><g transform="translate(509.02404240042495 356.1875878369208) rotate(0 26.596612873353706 -30.607661037555577)"><path d="M42.07 -32.8 C44.68 -38.02, 48.57 -44.23, 55.73 -59.85 M43.06 -32.67 C45.78 -38.3, 47.82 -43, 53.62 -59.86" stroke="#000000" stroke-width="1" fill="none"></path></g><g transform="translate(509.02404240042495 356.1875878369208) rotate(0 26.596612873353706 -30.607661037555577)"><path d="M26.98 -46.72 C32.86 -48.7, 40.09 -51.82, 55.73 -59.85 M27.98 -46.58 C34.02 -49.08, 39.35 -50.75, 53.62 -59.86" stroke="#000000" stroke-width="1" fill="none"></path></g></g><g stroke-linecap="round"><g transform="translate(468.6812457298661 487.32734032597943) rotate(0 0.3278658750305681 65.71247949599113)"><path d="M-0.73 1.08 C-0.68 22.55, 1.02 107.97, 1.39 129.74 M1.08 0.61 C0.84 22.12, 0.3 109.26, 0.2 130.82" stroke="#000000" stroke-width="1" fill="none"></path></g><g transform="translate(468.6812457298661 487.32734032597943) rotate(0 0.3278658750305681 65.71247949599113)"><path d="M-8.1 101.81 C-7.19 113.04, 0.05 125.01, -1.05 129.59 M-10.31 103.08 C-5.7 113.19, -2.98 123.54, 0.95 130.92" stroke="#000000" stroke-width="1" fill="none"></path></g><g transform="translate(468.6812457298661 487.32734032597943) rotate(0 0.3278658750305681 65.71247949599113)"><path d="M12.42 101.92 C5.31 112.99, 4.55 124.91, -1.05 129.59 M10.22 103.19 C7.02 113.09, 1.93 123.4, 0.95 130.92" stroke="#000000" stroke-width="1" fill="none"></path></g></g><g stroke-linecap="round" transform="translate(466.0821663280316 519.4940672784955) rotate(0 43.669804727281075 15.900925641487902)"><path d="M0.06 -0.65 L88.79 1.66 L87.61 29.99 L-1.97 31.64" stroke="none" stroke-width="0" fill="white"></path><path d="M0.69 -1.42 C18.01 2.26, 36.85 -0.62, 85.89 1.08 M0.85 -0.33 C23.91 1.19, 49.06 -0.5, 87.24 -0.23 M85.5 0.36 C85.4 9.79, 87.36 15.92, 85.97 32.72 M87.39 -0.9 C86.86 10.21, 87.73 18.69, 87.23 31.57 M88.63 30.67 C69.84 33.21, 52.58 30.79, -1.05 32.74 M87.34 32.45 C65.64 31.56, 44.48 30.9, -0.98 31.42 M0.66 30.29 C1.67 22.51, 2.02 13.04, 1.39 -0.11 M0.06 32.47 C-0.03 21.26, -0.04 7.98, -0.63 -0.11" stroke="transparent" stroke-width="1" fill="none"></path></g><g transform="translate(470.3949306875777 526.177192203931) rotate(0 7 10)"><text x="0" y="14" font-family="Virgil, Segoe UI Emoji" font-size="15.939906664182583px" fill="#000000" text-anchor="start" style="white-space: pre;" direction="ltr">is</text></g><g stroke-linecap="round"><g transform="translate(422.51297660729006 477.8590108374849) rotate(0 -66.08302901857436 40.714382986221494)"><path d="M1.18 0.12 C-21.14 13.77, -111.27 67.42, -133.34 80.8 M0.33 -0.86 C-21.67 13.08, -109.2 68.57, -131.16 82.29" stroke="#000000" stroke-width="1" fill="none"></path></g><g transform="translate(422.51297660729006 477.8590108374849) rotate(0 -66.08302901857436 40.714382986221494)"><path d="M-112.57 56.9 C-119.5 68.8, -126.53 75.63, -130.09 81.24 M-112.53 59.24 C-118.06 65.62, -122.54 71.95, -130.68 81.52" stroke="#000000" stroke-width="1" fill="none"></path></g><g transform="translate(422.51297660729006 477.8590108374849) rotate(0 -66.08302901857436 40.714382986221494)"><path d="M-101.63 74.26 C-112.19 80.26, -123 81.09, -130.09 81.24 M-101.59 76.6 C-110.26 78.21, -117.74 79.77, -130.68 81.52" stroke="#000000" stroke-width="1" fill="none"></path></g></g><g stroke-linecap="round"><g transform="translate(493.24441451514485 544.7210768013863) rotate(0 32.68273978136648 19.188072319862385)"><path d="M-0.52 0.19 C4.89 3, 21.52 11.5, 32.59 17.79 C43.66 24.08, 60.19 34.61, 65.89 37.93 M1.4 -0.76 C6.61 2.08, 20.77 12.05, 31.36 18.7 C41.95 25.35, 58.94 35.82, 64.93 39.14" stroke="#000000" stroke-width="1" fill="none"></path></g><g transform="translate(493.24441451514485 544.7210768013863) rotate(0 32.68273978136648 19.188072319862385)"><path d="M46.4 34.85 C50.03 36.26, 57.42 38.74, 64.25 37.61 M45.36 36.54 C51.89 36.61, 57.9 37.11, 65 38.23" stroke="#000000" stroke-width="1" fill="none"></path></g><g transform="translate(493.24441451514485 544.7210768013863) rotate(0 32.68273978136648 19.188072319862385)"><path d="M53.02 23.55 C54.69 28.42, 60.03 34.39, 64.25 37.61 M51.97 25.25 C56.25 29.05, 60.07 33.31, 65 38.23" stroke="#000000" stroke-width="1" fill="none"></path></g></g><g stroke-linecap="round" transform="translate(561.1297765560798 586.7822980519726) rotate(0 54.379688966901824 18.015100649296443)"><path d="M1.76 -0.24 C41.24 1.86, 84.04 0.83, 107.03 0.47 M0.44 -0.2 C34.87 0.34, 69.24 -1.15, 108.26 0.75 M110.6 -1.77 C106.91 9.44, 109.92 16.03, 107.63 36.12 M108.12 0.19 C108.28 14.78, 108.21 28.65, 108.37 35.09 M108.58 36.79 C74.65 38.64, 37.31 35.64, 1.36 35.08 M107.91 35.56 C80 35.98, 49.7 35.29, 0.44 36.85 M-1.9 35.4 C-0.62 27.78, 1.12 18.31, -0.44 -0.2 M-0.84 36.2 C0.53 26.94, -0.1 19.19, 0.5 0.55" stroke="#000000" stroke-width="1" fill="none"></path></g><g transform="translate(573.1411102731071 593.5897337856183) rotate(0 44 12.5)"><text x="0" y="17" font-family="Virgil, Segoe UI Emoji" font-size="19.455244742543307px" fill="#000000" text-anchor="start" style="white-space: pre;" direction="ltr">High level</text></g><g stroke-linecap="round" transform="translate(659.6186810254825 82.6245145833779) rotate(0 74.28274219717878 25.246219935440955)"><path d="M-1.39 -0.54 C50.11 -0.43, 96.02 -0.42, 146.84 -1.61 M0.02 0.21 C31.66 0.65, 62.11 -0.16, 148.2 0.74 M146.98 0.68 C149.14 16.01, 147.42 35.21, 148.12 50.79 M149.21 0.02 C148.25 10.43, 148.95 21.29, 147.84 50.14 M148.89 51.15 C89.48 49.13, 31.82 50.65, 0.03 50.46 M149.49 51.22 C102.41 49.83, 57.06 50.67, -0.78 51.45 M0.12 51.61 C0.53 34.3, -1.26 20.39, -1.12 0.6 M-0.75 50.81 C0.23 34.86, 0.52 20.44, -0.42 0.8" stroke="#000000" stroke-width="1" fill="none"></path></g><g transform="translate(667.4349936446246 97.94591659179659) rotate(0 67.5 12.5)"><text x="0" y="17" font-family="Virgil, Segoe UI Emoji" font-size="19.455244742543307px" fill="#000000" text-anchor="start" style="white-space: pre;" direction="ltr">Multithreading</text></g><g stroke-linecap="round" transform="translate(547.817162558807 237.0842015068733) rotate(0 32.48091478829821 26.215182320079347)"><path d="M1.3 0.04 C13.98 -0.94, 29.47 -1.11, 63.51 -0.7 M0.16 0.33 C25.87 -0.49, 52.46 0.27, 64.98 -0.01 M66.81 1.45 C64.02 14.84, 64.75 32.66, 63.4 54.35 M65.02 0.56 C65.16 15.38, 64.27 31.9, 64.4 52.73 M63.46 53.07 C46.4 51.17, 27.99 51.86, -0.84 54.03 M64.59 53.05 C45.23 52.42, 25.93 53.31, 0.43 53.37 M1.96 53.57 C-0.44 34.7, -1.33 16.57, -0.13 -1.96 M-0.38 51.53 C-1.17 37.96, -0.45 24.14, 0.39 -0.71" stroke="#000000" stroke-width="1" fill="none"></path></g><g transform="translate(560.3756626779491 252.99640361174093) rotate(0 19 12.5)"><text x="0" y="17" font-family="Virgil, Segoe UI Emoji" font-size="19.455244742543304px" fill="#000000" text-anchor="start" style="white-space: pre;" direction="ltr">HPC</text></g><g stroke-linecap="round" transform="translate(567.2291311704593 10) rotate(0 59.83247728829821 29.09018232007935)"><path d="M1.96 -1.06 C30.76 2.45, 64.86 1.49, 118.42 0.64 M-0.99 0.94 C37.91 -0.28, 76.63 1.5, 120.4 -0.34 M118.04 -0.16 C117.96 10.26, 119.42 21.88, 117.99 59 M119.25 -0.03 C118.23 12.88, 119.69 26.36, 119.52 57.87 M120.04 58.47 C79.63 56.34, 41.01 59.37, -0.12 58.89 M120.21 57.97 C85.04 57.49, 48.19 56.45, 0.7 58.53 M-1.23 58.9 C-1.42 45.87, 1.42 33.98, -0.21 -0.95 M0 57.25 C0.89 39.86, 0.97 23.25, 0.48 -0.46" stroke="#000000" stroke-width="1" fill="none"></path></g><g transform="translate(574.0220062896013 16.196248898074572) rotate(0 54 24.5)"><text x="0" y="17.5" font-family="Virgil, Segoe UI Emoji" font-size="19.455244742543304px" fill="#000000" text-anchor="start" style="white-space: pre;" direction="ltr">Distributed</text><text x="0" y="42" font-family="Virgil, Segoe UI Emoji" font-size="19.455244742543304px" fill="#000000" text-anchor="start" style="white-space: pre;" direction="ltr">computing</text></g><g stroke-linecap="round" transform="translate(150.88515392249997 700.4261793443131) rotate(0 92.6024051515196 26.21518232007935)"><path d="M1.47 -0.68 C39.15 -2.71, 83.66 -3.47, 185.05 -1.46 M-0.84 0.41 C40.94 0.68, 83.07 1.1, 185.18 -0.95 M184.92 -0.62 C185.95 13.87, 184.32 29.44, 185.49 51.14 M185.15 0.36 C184.85 12.38, 183.99 25.97, 184.99 53.12 M186.6 53.13 C120.64 52.18, 58.9 50, 0.72 51.29 M185.1 51.96 C127.75 52.98, 70.25 53.19, -0.93 53.2 M0.96 51.51 C-0.96 41.32, -0.68 29.93, -0.66 0.7 M0.34 53.12 C0.26 32.02, 0.33 13.27, -0.4 0.5" stroke="#000000" stroke-width="1" fill="none"></path></g><g transform="translate(157.49834154164193 714.2385062855948) rotate(0 88 12.5)"><text x="0" y="17" font-family="Virgil, Segoe UI Emoji" font-size="19.455244742543304px" fill="#000000" text-anchor="start" style="white-space: pre;" direction="ltr">Code introspection</text></g><g stroke-linecap="round"><g transform="translate(750.3703888782717 692.4348299352425) rotate(342.07582342830756 31.869269074106057 -18.684358155345677)"><path d="M0.87 0.93 C7.31 -2.47, 27.57 -14.2, 38.07 -20.74 C48.57 -27.28, 59.75 -35.54, 63.86 -38.3 M-0.13 0.37 C6.22 -2.85, 26.72 -13.22, 37.29 -19.51 C47.86 -25.81, 59.1 -34.64, 63.32 -37.39" stroke="#000000" stroke-width="1" fill="none"></path></g><g transform="translate(750.3703888782717 692.4348299352425) rotate(342.07582342830756 31.869269074106057 -18.684358155345677)"><path d="M55.7 -24.22 C56.04 -27.44, 58.03 -32.18, 63.61 -38.48 M54.66 -25.28 C57.49 -28.44, 59.31 -31.18, 64.02 -36.7" stroke="#000000" stroke-width="1" fill="none"></path></g><g transform="translate(750.3703888782717 692.4348299352425) rotate(342.07582342830756 31.869269074106057 -18.684358155345677)"><path d="M49.56 -32.88 C51.45 -33.92, 55.02 -36.44, 63.61 -38.48 M48.53 -33.94 C53.07 -34.65, 56.63 -34.92, 64.02 -36.7" stroke="#000000" stroke-width="1" fill="none"></path></g></g><g stroke-linecap="round" transform="translate(774.175293824589 596.7246579994705) rotate(0 107.7543169505218 23.31209501865297)"><path d="M-0.3 -0.41 C75.93 1.12, 149.78 -0.88, 216.83 1.72 M-0.04 0.54 C61.44 -1.73, 122.78 -1.02, 214.68 0.54 M216.1 1.93 C217.36 17.02, 216.93 31.47, 216.66 48.31 M214.73 -0.07 C215.38 11.86, 215.76 25.02, 216.1 47.26 M213.81 45.55 C162.67 44.51, 106.87 43.57, 1.01 46.26 M215.76 46.56 C147.28 48.22, 79.58 47.39, 0.06 47.43 M0.79 46.19 C-0.55 32.02, -1.14 18.28, 1.84 1.45 M0.8 46.9 C-0.01 32.01, 0.6 17, -0.79 -0.67" stroke="#000000" stroke-width="1" fill="none"></path></g><g transform="translate(780.4545500622945 605.8405041200489) rotate(0 103 12.5)"><text x="0" y="17" font-family="Virgil, Segoe UI Emoji" font-size="19.455244742543304px" fill="#000000" text-anchor="start" style="white-space: pre;" direction="ltr">Two-language problem</text></g><g stroke-linecap="round"><g transform="translate(436.01957772519756 701.5677313528294) rotate(0 -46.57345260520219 10.71860887798374)"><path d="M-0.07 0.36 C-15.5 3.61, -77.81 17.03, -93.08 20.64 M-1.56 -0.49 C-16.57 3.43, -75.72 18.49, -90.83 21.93" stroke="#000000" stroke-width="1" fill="none"></path></g><g transform="translate(436.01957772519756 701.5677313528294) rotate(0 -46.57345260520219 10.71860887798374)"><path d="M-65.25 3.82 C-72.92 10.38, -77.05 13.23, -89.52 20.32 M-66.82 6.1 C-74.92 11.78, -82.93 15.8, -91.06 22.01" stroke="#000000" stroke-width="1" fill="none"></path></g><g transform="translate(436.01957772519756 701.5677313528294) rotate(0 -46.57345260520219 10.71860887798374)"><path d="M-60.41 23.76 C-69.51 25.2, -74.88 22.91, -89.52 20.32 M-61.97 26.04 C-71.75 24.86, -81.43 22.04, -91.06 22.01" stroke="#000000" stroke-width="1" fill="none"></path></g></g><g stroke-linecap="round"><g transform="translate(423.69133108475484 665.071702685124) rotate(0 -1.6181034812182986 39.237716144643514)"><path d="M0.88 0.37 C0.26 13.58, -3.46 65.87, -4.11 78.95 M-0.12 -0.48 C-0.33 12.46, -1.28 64.53, -1.87 77.46" stroke="#000000" stroke-width="1" fill="none"></path></g><g transform="translate(423.69133108475484 665.071702685124) rotate(0 -1.6181034812182986 39.237716144643514)"><path d="M-10.67 47.47 C-6.86 56.82, -4.52 63.06, -3.07 78.35 M-11.16 48.52 C-7.14 58.22, -4.53 67.81, -2.84 77.81" stroke="#000000" stroke-width="1" fill="none"></path></g><g transform="translate(423.69133108475484 665.071702685124) rotate(0 -1.6181034812182986 39.237716144643514)"><path d="M9.84 48.08 C8.19 57.42, 5.06 63.5, -3.07 78.35 M9.35 49.13 C6.41 58.57, 2.08 67.96, -2.84 77.81" stroke="#000000" stroke-width="1" fill="none"></path></g></g><g stroke-linecap="round" transform="translate(396.26088475967697 686.9417567455799) rotate(0 43.669804727281075 11.023814972141338)"><path d="M-1 -1.92 L88.94 -1.02 L89.16 22.13 L-1.56 21.59" stroke="none" stroke-width="0" fill="white"></path><path d="M-1.43 0.98 C30.7 0.69, 60.12 -1.93, 87.17 -0.87 M0.3 -0.67 C22.87 -1.22, 47.46 0.06, 86.99 -0.91 M89.18 -1.8 C86.04 8.46, 87.24 17.33, 88.63 23.51 M87.85 -0.59 C86.29 5.71, 86.92 9.15, 87.9 21.96 M87.58 20.55 C63.81 23.46, 35.93 21.43, 1.18 20.31 M88.12 21.9 C64.14 23.18, 41.53 21.86, 0.43 21.79 M-0.92 24.03 C0.31 15.46, -1.45 10.69, -0.86 1.94 M-0.4 22.46 C0.68 15.26, 0.59 8.27, 0.43 0.09" stroke="transparent" stroke-width="1" fill="none"></path></g><g transform="translate(400.573649119223 684.1089415823222) rotate(0 24 10)"><text x="0" y="14" font-family="Virgil, Segoe UI Emoji" font-size="15.939906664182583px" fill="#000000" text-anchor="start" style="white-space: pre;" direction="ltr">allows</text></g><g stroke-linecap="round"><g transform="translate(624.5303153313406 627.8910022018173) rotate(0 14.569140550115321 35.365844381992474)"><path d="M-0.01 -0.63 C4.88 11.12, 23.58 58.49, 28.36 70.34 M-1.48 1.65 C3.87 13.54, 25.77 59.74, 30.62 71.37" stroke="#000000" stroke-width="1" fill="none"></path></g></g><g stroke-linecap="round"><g transform="translate(619.7444011217246 752.0302830839498) rotate(0 18.1162360431274 -11.778933141966888)"><path d="M-0.53 0.81 C5.14 -3.11, 28.54 -20.26, 34.64 -24.36 M1.4 0.18 C7.36 -3.45, 31.08 -18.44, 36.76 -22.78" stroke="#000000" stroke-width="1" fill="none"></path></g></g><g stroke-linecap="round" transform="translate(609.401202647271 706.8785007850114) rotate(0 43.66980472728102 11.023814972141338)"><path d="M1.94 1.81 L87.05 0.85 L88.83 21.12 L0.04 21.58" stroke="none" stroke-width="0" fill="white"></path><path d="M1.56 -0.35 C22.01 -1.39, 48.91 -0.5, 88.49 0.66 M-0.29 -0.55 C29.39 -0.63, 59.51 0.64, 87.94 1 M88.89 0 C88.06 3.91, 87.61 9.6, 87.91 21.48 M87.19 -0.41 C87.12 7.84, 87.84 14.81, 87.11 21.73 M88.56 21.14 C54.51 21.75, 19.67 20.78, -0.75 23.53 M86.39 21.6 C68.43 20.76, 48.49 22.02, -0.17 21.31 M-0.11 23.93 C1.43 15.77, 2.01 4.94, -1.28 -0.55 M-0.51 22.98 C-0.66 14.02, -0.32 6, 0.77 0.84" stroke="transparent" stroke-width="1" fill="none"></path></g><g transform="translate(613.713967006817 703.8074043717538) rotate(0 79 10)"><text x="0" y="14" font-family="Virgil, Segoe UI Emoji" font-size="15.939906664182583px" fill="#000000" text-anchor="start" style="white-space: pre;" direction="ltr">together solves the</text></g><g stroke-linecap="round" transform="translate(593.181271951753 756.6711943562639) rotate(0 36.63817769679736 21.406468995530815)"><path d="M0.3 1.45 C15.48 1.66, 30.63 -0.76, 74.74 1.41 M0.15 0.67 C17.59 -0.2, 35.26 -0.16, 72.46 0.58 M73.52 -1.27 C75.31 14.15, 74.17 25.74, 72.83 41.92 M73.05 0.64 C74.04 16.22, 73.6 30.62, 73.52 42.08 M72.65 44.6 C43.16 41.65, 16.2 42.79, 0.66 41.33 M72.45 42.66 C55.62 42.99, 40.12 43.1, 0.06 43.55 M-0.87 43.97 C1.93 25.61, 1.64 9.53, 0.2 0.84 M-0.62 42.55 C0.67 28.64, -0.56 13.46, -0.48 0" stroke="#000000" stroke-width="1" fill="none"></path></g><g transform="translate(604.9532149619873 766.1575260944982) rotate(0 24 12.5)"><text x="0" y="17" font-family="Virgil, Segoe UI Emoji" font-size="19.455244742543304px" fill="#000000" text-anchor="start" style="white-space: pre;" direction="ltr">Fast</text></g><g stroke-linecap="round"><g transform="translate(499.8955807933919 769.3745599590435) rotate(0 45.29604083899051 6.353234468572623)"><path d="M0.71 -0.48 C15.66 1.75, 73.81 10.77, 88.6 13.05 M-0.38 -1.78 C15.07 0.67, 76.12 11.77, 90.97 14.48" stroke="#000000" stroke-width="1" fill="none"></path></g><g transform="translate(499.8955807933919 769.3745599590435) rotate(0 45.29604083899051 6.353234468572623)"><path d="M60.6 18.46 C67.21 18.59, 73.57 17.65, 91.25 16.47 M62.22 19.74 C70.49 17.92, 78.62 15.48, 91.78 15.47" stroke="#000000" stroke-width="1" fill="none"></path></g><g transform="translate(499.8955807933919 769.3745599590435) rotate(0 45.29604083899051 6.353234468572623)"><path d="M64.27 -1.73 C70.07 2.6, 75.67 5.84, 91.25 16.47 M65.88 -0.45 C72.95 3.82, 79.98 7.44, 91.78 15.47" stroke="#000000" stroke-width="1" fill="none"></path></g></g><g stroke-linecap="round" transform="translate(495.4295760174358 793.0813399029197) rotate(0 43.669804727281075 11.023814972141338)"><path d="M-0.48 0.67 L88.46 -1.5 L87.56 23.9 L1.86 22.48" stroke="none" stroke-width="0" fill="white"></path><path d="M-0.31 -1.14 C27.41 1.61, 54.45 2.26, 89.17 1.92 M-0.19 -0.13 C30.61 0.37, 60.39 -0.82, 86.5 -0.66 M86.63 -1.65 C88.9 3.47, 85.62 10.17, 86.98 22.79 M87.67 -0.5 C86.77 5.04, 86.48 9.17, 87.24 22.96 M86.78 20.97 C62.48 21.46, 37.84 23.02, -1.88 22.02 M86.62 23.02 C63.25 20.94, 40.04 22.22, 0.73 21.49 M1.26 22.5 C-1.7 18.01, -0.58 9.76, -1.91 1.06 M0.81 22.5 C-0.36 16.39, 0.77 9.85, -0.76 -0.25" stroke="transparent" stroke-width="1" fill="none"></path></g><g transform="translate(499.7423403769816 790.248524739662) rotate(0 34 10)"><text x="0" y="14" font-family="Virgil, Segoe UI Emoji" font-size="15.939906664182583px" fill="#000000" text-anchor="start" style="white-space: pre;" direction="ltr">makes it</text></g><g stroke-linecap="round" transform="translate(209.2285638451268 255.26360669650077) rotate(0 71.224251811557 23.312095018652965)"><path d="M-0.36 -0.51 C38.23 0.16, 72.86 1.67, 142.92 -1.33 M0.49 -0.47 C47.39 -1.48, 97.54 -1.82, 142.92 -0.51 M140.6 -1.66 C143.58 11.8, 143.69 23.67, 141.41 45.22 M143.22 0.19 C142.27 9.76, 142.62 20.28, 142.75 46.98 M144.43 46.17 C90.8 47.72, 43.72 48.15, -0.73 46.94 M141.99 46.37 C104.17 46.41, 64.75 44.99, -0.23 46.51 M1.5 47.99 C-1.74 37.4, 0.99 24.01, -1.38 1.9 M0.61 45.64 C0.96 28.25, 0.5 10.33, -0.85 0.87" stroke="#000000" stroke-width="1" fill="none"></path></g><g transform="translate(220.14625574471677 267.38015354343213) rotate(0 53.5 12.5)"><text x="0" y="17" font-family="Virgil, Segoe UI Emoji" font-size="19.455244742543304px" fill="#000000" text-anchor="start" style="white-space: pre;" direction="ltr">Composable</text></g><g stroke-linecap="round" transform="translate(322.5545760174357 503.1628216519442) rotate(0 43.66980472728105 15.900925641487902)"><path d="M-1.19 1.31 L85.83 -1 L85.37 33.79 L-1.64 33.67" stroke="none" stroke-width="0" fill="white"></path><path d="M0.29 0.25 C33.4 -1.28, 64.31 0.81, 87.39 -1.85 M-0.69 -0.46 C23.27 -1.32, 46.57 -0.39, 86.64 0.5 M87.35 -1.84 C88.59 10.6, 88.22 19, 88.39 30.76 M87.17 0.68 C86.57 11.75, 87.45 24.08, 87.53 31.49 M85.58 29.82 C60.27 31.49, 30.88 32.02, 1.36 32.6 M87.86 32.61 C66.42 32.51, 44.05 31.85, 0.07 32.3 M-0.74 32.53 C-0.56 26.15, 1.04 17.74, -0.93 1.97 M0.28 32.31 C-0.4 24.27, -0.2 18.33, 0.36 0.61" stroke="transparent" stroke-width="1" fill="none"></path></g><g transform="translate(326.8673403769818 509.8459465773798) rotate(0 35.5 10)"><text x="0" y="14" font-family="Virgil, Segoe UI Emoji" font-size="15.939906664182585px" fill="#000000" text-anchor="start" style="white-space: pre;" direction="ltr">based on</text></g><g stroke-linecap="round" transform="translate(187.9040721232035 547.5364035434321) rotate(0 50.612776937165734 33.93507297533344)"><path d="M0.9 -0.84 C24.35 0.12, 47.3 0.35, 102.23 -1.17 M-0.77 -0.62 C31.11 -0.01, 63.14 0.55, 101.83 -0.31 M99.62 0.96 C100.83 22.65, 103.34 42.01, 103.1 68.18 M101 -0.12 C101.73 22.21, 99.99 43.7, 100.95 67.83 M102.86 68.34 C75.04 70.19, 43.13 70.2, 0.53 66.6 M100.7 68.11 C61.67 67.59, 20.77 68.58, 0.54 66.94 M0.54 69.86 C0.07 42.64, 0.76 19.78, -1.33 0.3 M-0.1 66.87 C0.98 51.06, 0.78 32.68, -0.92 -0.01" stroke="#000000" stroke-width="1" fill="none"></path></g><g transform="translate(197.20094324471677 556.0481222934321) rotate(0 42.5 24.5)"><text x="0" y="17.5" font-family="Virgil, Segoe UI Emoji" font-size="19.455244742543304px" fill="#000000" text-anchor="start" style="white-space: pre;" direction="ltr">Multiple </text><text x="0" y="42" font-family="Virgil, Segoe UI Emoji" font-size="19.455244742543304px" fill="#000000" text-anchor="start" style="white-space: pre;" direction="ltr">Dispatch</text></g><g stroke-linecap="round"><g transform="translate(214.14113140455834 364.8602425956831) rotate(0 21.66533185387823 -26.6486513498485)"><path d="M-1.04 -0.54 C5.91 -9.48, 34.59 -44.35, 42.05 -53.35 M0.62 1.79 C7.92 -7.52, 37.23 -45.88, 44.37 -55.08" stroke="#000000" stroke-width="1" fill="none"></path></g><g transform="translate(214.14113140455834 364.8602425956831) rotate(0 21.66533185387823 -26.6486513498485)"><path d="M34.41 -27.72 C39.46 -34.31, 40.52 -46.33, 43.67 -55.29 M34.5 -26.03 C37.57 -35.56, 40.47 -45.33, 45.33 -55.62" stroke="#000000" stroke-width="1" fill="none"></path></g><g transform="translate(214.14113140455834 364.8602425956831) rotate(0 21.66533185387823 -26.6486513498485)"><path d="M18.14 -40.24 C28.61 -42.54, 35.05 -50.42, 43.67 -55.29 M18.24 -38.54 C26.51 -44.06, 34.72 -49.76, 45.33 -55.62" stroke="#000000" stroke-width="1" fill="none"></path></g></g><g stroke-linecap="round" transform="translate(157.2303572674357 367.7800091519442) rotate(0 43.66980472728105 15.900925641487902)"><path d="M-1.57 -1.43 L88.7 1.83 L88.23 30.58 L0.83 31.89" stroke="none" stroke-width="0" fill="white"></path><path d="M-0.81 -0.84 C23.71 -1.4, 49.86 -1.81, 86.05 0.81 M-0.4 -0.86 C22.83 -0.5, 43.54 -0.55, 87.62 -0.91 M85.8 -1.08 C88.39 12.84, 86.16 20.9, 86.32 31.37 M88.33 -0.39 C86.78 10.74, 88.37 19.56, 86.95 31.43 M88.57 31.91 C55.13 32.6, 23.39 31.16, 1.61 32.43 M87.79 31.17 C61.46 30.93, 36.65 31.51, 0.66 31.34 M0.61 32.72 C1.28 19.67, 0.34 9.65, -0.51 0.61 M0.71 32.12 C-0.41 22.94, 0.17 15.07, 0.25 0.83" stroke="transparent" stroke-width="1" fill="none"></path></g><g transform="translate(161.54312162698182 374.4631340773798) rotate(0 34 10)"><text x="0" y="14" font-family="Virgil, Segoe UI Emoji" font-size="15.939906664182585px" fill="#000000" text-anchor="start" style="white-space: pre;" direction="ltr">makes it</text></g><g stroke-linecap="round"><g transform="translate(210.78012314663226 394.67356286249503) rotate(0 6.693185956117816 12.616439804286458)"><path d="M-0.68 0.47 C1.8 4.8, 11.72 21.35, 14.06 25.56 M1.17 -0.32 C3.59 3.68, 11.38 19.75, 13.26 23.76" stroke="#000000" stroke-width="1" fill="none"></path></g></g><g stroke-linecap="round"><g transform="translate(190.51051212595652 367.43637923647975) rotate(0 -9.51220910274759 -33.29473949489556)"><path d="M1.09 0.11 C-2.06 -11.11, -15.72 -55.75, -19.12 -66.7 M0.2 -0.88 C-3.1 -11.96, -16.7 -54.2, -20.11 -65.29" stroke="#000000" stroke-width="1" fill="none"></path></g><g transform="translate(190.51051212595652 367.43637923647975) rotate(0 -9.51220910274759 -33.29473949489556)"><path d="M-1.66 -41.61 C-7.5 -48.51, -10.72 -54.56, -21.23 -66.86 M-2.21 -41.38 C-6.63 -47.66, -11.32 -53.74, -20.48 -66.09" stroke="#000000" stroke-width="1" fill="none"></path></g><g transform="translate(190.51051212595652 367.43637923647975) rotate(0 -9.51220910274759 -33.29473949489556)"><path d="M-21.24 -35.44 C-21.6 -44.24, -19.33 -52.03, -21.23 -66.86 M-21.78 -35.21 C-21.29 -43.18, -20.99 -50.83, -20.48 -66.09" stroke="#000000" stroke-width="1" fill="none"></path></g></g><g stroke-linecap="round"><g transform="translate(614.3074668966323 202.12864098749506) rotate(0 -9.106739481517025 17.39812373638222)"><path d="M-0.5 0.05 C-3.84 5.92, -16.67 30, -19.65 35.76 M1.44 -0.97 C-1.54 4.54, -13.92 28.1, -17.31 34.26" stroke="#000000" stroke-width="1" fill="none"></path></g></g><g stroke-linecap="round" transform="translate(592.3944197674358 181.5690716519442) rotate(0 35.345585977281075 15.629441266487895)"><path d="M-1.28 -1.17 L69.99 -1.72 L72.31 33.11 L1.64 33.24" stroke="none" stroke-width="0" fill="white"></path><path d="M-1.53 -1.26 C26.36 -1.57, 53.28 -1.69, 68.9 -1.81 M0.01 0.35 C24.57 0.17, 46.81 -1.65, 70.8 0.71 M69.84 1.22 C69.7 11.6, 72.05 22.54, 69.92 30.93 M70.53 -0.02 C70.93 9.1, 71.49 18.48, 71.51 30.5 M71.44 32.15 C45.05 31.99, 17.4 31.17, 0.04 32.15 M71.01 30.31 C54.5 32, 38.44 32.46, 0.61 31.43 M-1.08 30.84 C1.71 23.37, 1.13 15.31, -0.06 0.25 M0.44 31.88 C-0.41 21.98, 0.1 15.42, -0.38 0.62" stroke="transparent" stroke-width="1" fill="none"></path></g><g transform="translate(596.7071841269818 187.70922782737975) rotate(0 44 10)"><text x="0" y="14" font-family="Virgil, Segoe UI Emoji" font-size="15.939906664182585px" fill="#000000" text-anchor="start" style="white-space: pre;" direction="ltr">because of</text></g><g stroke-linecap="round"><g transform="translate(628.8108862300509 176.78601369729503) rotate(0 -1.0840588993848428 -53.1763700724443)"><path d="M0.25 -0.18 C0.19 -17.69, -1.05 -87.11, -1.3 -104.64 M-1.08 -1.31 C-1.24 -19.17, -2.25 -88.48, -2.42 -106.18" stroke="#000000" stroke-width="1" fill="none"></path></g><g transform="translate(628.8108862300509 176.78601369729503) rotate(0 -1.0840588993848428 -53.1763700724443)"><path d="M7.9 -78.67 C7.58 -84.75, 4.03 -89.1, -4.42 -106.29 M7.89 -78.14 C4.75 -85.78, 2.62 -93.4, -2.79 -106.43" stroke="#000000" stroke-width="1" fill="none"></path></g><g transform="translate(628.8108862300509 176.78601369729503) rotate(0 -1.0840588993848428 -53.1763700724443)"><path d="M-12.62 -78.42 C-8.38 -84.59, -7.36 -89, -4.42 -106.29 M-12.63 -77.88 C-10.06 -85.63, -6.47 -93.33, -2.79 -106.43" stroke="#000000" stroke-width="1" fill="none"></path></g></g><g stroke-linecap="round"><g transform="translate(600.9321024311203 186.0166178744) rotate(0 -13.47276046061529 -15.517282343747315)"><path d="M-0.69 0.13 C-5.26 -5.04, -23.07 -26.1, -27.62 -31.16 M1.14 -0.85 C-3.48 -5.83, -23.15 -24.57, -28.09 -29.81" stroke="#000000" stroke-width="1" fill="none"></path></g><g transform="translate(600.9321024311203 186.0166178744) rotate(0 -13.47276046061529 -15.517282343747315)"><path d="M-8.86 -19.41 C-15 -22.64, -18.84 -24.46, -29.47 -28.86 M-9.29 -21.58 C-13.78 -22.71, -16.99 -24.34, -28.04 -29.05" stroke="#000000" stroke-width="1" fill="none"></path></g><g transform="translate(600.9321024311203 186.0166178744) rotate(0 -13.47276046061529 -15.517282343747315)"><path d="M-19.02 -9.27 C-22.28 -15.3, -23.26 -19.97, -29.47 -28.86 M-19.45 -11.43 C-21.92 -14.61, -23.08 -18.3, -28.04 -29.05" stroke="#000000" stroke-width="1" fill="none"></path></g></g><g stroke-linecap="round" transform="translate(446.85546875 115.90770552948246) rotate(0 82.85719324471665 16.886510513949695)"><path d="M-0.19 -1.73 C56.51 1.04, 113.09 -2.64, 164.54 -0.24 M0.23 0.27 C47.92 0.12, 95.22 0.27, 165.36 0.62 M165.56 1.64 C165.02 10.96, 165.94 22.83, 165.74 35.53 M165.39 0.64 C165.07 12.18, 166.21 24.92, 166.44 33.14 M165.41 32.25 C131.21 35.91, 97.6 35.94, 0.54 32.04 M165.91 33.91 C113.96 34.5, 62.26 33.86, -0.82 33.57 M0.31 33.21 C-0.49 24.65, -2.06 16.22, -1.76 -0.75 M0.81 33.53 C0.45 22.56, -0.39 14.11, 0.56 -0.48" stroke="#000000" stroke-width="1" fill="none"></path></g><g transform="translate(456.22217963808953 117.69027285668918) rotate(0 70.5 12.5)"><text x="0" y="17" font-family="Virgil, Segoe UI Emoji" font-size="19.455244742543304px" fill="#000000" text-anchor="start" style="white-space: pre;" direction="ltr">GPU computing</text></g><g stroke-linecap="round"><g transform="translate(511.45198662136306 368.2612520809877) rotate(0 32.62841777809592 -5.166794021486915)"><path d="M1.17 0.68 C11.62 -0.69, 52.43 -7.46, 62.69 -9.02 M0.32 -0.01 C11.15 -1.69, 54.12 -9.23, 64.93 -11.01" stroke="#000000" stroke-width="1" fill="none"></path></g><g transform="translate(511.45198662136306 368.2612520809877) rotate(0 32.62841777809592 -5.166794021486915)"><path d="M40 2.34 C47.17 -2.28, 55.53 -6.16, 65.44 -10.14 M38.94 3.28 C49.02 -1.57, 59.43 -7.87, 65.11 -10.04" stroke="#000000" stroke-width="1" fill="none"></path></g><g transform="translate(511.45198662136306 368.2612520809877) rotate(0 32.62841777809592 -5.166794021486915)"><path d="M36.55 -17.89 C44.61 -16.5, 54 -14.35, 65.44 -10.14 M35.49 -16.95 C46.94 -13.81, 58.72 -12.09, 65.11 -10.04" stroke="#000000" stroke-width="1" fill="none"></path></g></g><g stroke-linecap="round" transform="translate(296.29846731494376 177.3835247769442) rotate(0 35.34558597728105 15.629441266487895)"><path d="M1.11 -1.02 L69.96 -1.72 L69.08 29.62 L0.22 31.97" stroke="none" stroke-width="0" fill="white"></path><path d="M-0.15 0.37 C23.43 1.99, 45.71 0.28, 71.81 -1.18 M0.05 -0.35 C17.96 -0.9, 38.11 -0.63, 71.6 -0.96 M72.57 0.78 C69.57 9.42, 72.1 15.01, 69.36 29.8 M71.45 -0.04 C70.28 7.84, 71.34 16.17, 70.33 31.09 M71.71 32.38 C50.9 29.05, 35.18 30.6, 0.72 30.93 M69.92 31.24 C49.49 31.36, 26.48 31.32, -0.92 30.42 M-1.67 30.92 C-0.55 20.08, 0.81 6, 1.55 -0.63 M0.9 31.33 C0.77 24.77, -0.57 16.43, -0.23 -0.75" stroke="transparent" stroke-width="1" fill="none"></path></g><g transform="translate(300.6112316744898 183.52368095237975) rotate(0 44 10)"><text x="0" y="14" font-family="Virgil, Segoe UI Emoji" font-size="15.939906664182585px" fill="#000000" text-anchor="start" style="white-space: pre;" direction="ltr">because of</text></g><g stroke-linecap="round"><g transform="translate(420.5615889762339 232.87656105704988) rotate(0 -15.433497920173124 -12.760890507539045)"><path d="M0.43 0.08 C-4.62 -4.21, -26.02 -21.51, -31.3 -25.6 M-0.8 -0.93 C-5.42 -5.06, -24.51 -20.02, -29.19 -24.27" stroke="#000000" stroke-width="1" fill="none"></path></g></g><g stroke-linecap="round"><g transform="translate(324.1996738908386 211.2788048932806) rotate(0 -11.688583420167191 20.333236014613515)"><path d="M1.18 -1.1 C-2.92 5.82, -19.44 34.89, -23.48 41.77 M0.33 0.93 C-4.03 7.52, -20.53 33.49, -24.55 40.2" stroke="#000000" stroke-width="1" fill="none"></path></g><g transform="translate(324.1996738908386 211.2788048932806) rotate(0 -11.688583420167191 20.333236014613515)"><path d="M-21.59 16.87 C-19.81 26.48, -24.36 34.78, -23.74 39.72 M-19.51 17.13 C-20.98 25.15, -23.05 32, -23.6 39.87" stroke="#000000" stroke-width="1" fill="none"></path></g><g transform="translate(324.1996738908386 211.2788048932806) rotate(0 -11.688583420167191 20.333236014613515)"><path d="M-7.97 25.32 C-11.5 31.77, -21.36 36.79, -23.74 39.72 M-5.88 25.58 C-11.95 30.75, -18.64 34.73, -23.6 39.87" stroke="#000000" stroke-width="1" fill="none"></path></g></g><g stroke-linecap="round"><g transform="translate(297.78115480622773 181.7373161125306) rotate(0 -23.372164343956655 -16.59173016558622)"><path d="M-0.41 -1.16 C-8.33 -6.66, -39.65 -28.69, -47.59 -34.03 M1.58 0.85 C-6.46 -4.44, -39.93 -27.5, -48.32 -32.96" stroke="#000000" stroke-width="1" fill="none"></path></g><g transform="translate(297.78115480622773 181.7373161125306) rotate(0 -23.372164343956655 -16.59173016558622)"><path d="M-21.95 -25.28 C-29.83 -28.16, -36.85 -30.5, -47.37 -32.31 M-20.49 -26.18 C-28.31 -27.31, -35.15 -29.53, -47.82 -32.17" stroke="#000000" stroke-width="1" fill="none"></path></g><g transform="translate(297.78115480622773 181.7373161125306) rotate(0 -23.372164343956655 -16.59173016558622)"><path d="M-33.08 -8.73 C-37.53 -16.47, -41.26 -23.7, -47.37 -32.31 M-31.62 -9.62 C-36.51 -15.33, -40.3 -22.1, -47.82 -32.17" stroke="#000000" stroke-width="1" fill="none"></path></g></g><g stroke-linecap="round" transform="translate(147.76171875 107.8530180294824) rotate(0 91.94313074471665 20.560338638949688)"><path d="M1.27 0.91 C40.78 -1.25, 77.56 -2.14, 182.18 -0.96 M0.74 -0.52 C58.41 -1.28, 117.17 -0.83, 183.71 0.66 M183.11 -1.67 C185.94 15.24, 184.41 30.52, 184.74 40.3 M184.7 0.5 C183.23 13.6, 184.36 27.23, 183.55 40.38 M183.79 40.83 C121.63 41.3, 54.5 40.24, 1.14 41.37 M183.84 40.3 C129.14 41.61, 75.21 42.39, -0.62 41.12 M1.83 40.61 C-1.21 25.82, -0.97 14.79, 1.59 -1.38 M-0.88 41.22 C-0.67 31.24, 1.08 21.46, -0.71 0.17" stroke="#000000" stroke-width="1" fill="none"></path></g><g stroke-linecap="round"><g transform="translate(700.7489901946014 562.2838404114397) rotate(0 -14.946550686212106 12.138633020618698)"><path d="M0.36 -0.08 C-4.4 3.97, -24.38 21.33, -29.04 25.44 M-0.91 -1.16 C-5.83 3.04, -25.76 19.15, -30.25 23.63" stroke="#000000" stroke-width="1" fill="none"></path></g></g><g stroke-linecap="round" transform="translate(670.2733260174357 534.9206341519442) rotate(0 43.66980472728102 15.900925641487902)"><path d="M0.98 -1.35 L87.32 0.64 L88.63 33.23 L-1.43 31.12" stroke="none" stroke-width="0" fill="white"></path><path d="M-0.84 -1.32 C18.08 0, 37.1 0.18, 88.9 1.7 M0.09 0.92 C31.36 0.1, 63.74 0.38, 87.52 -0.99 M86.01 0.52 C86.35 11.44, 88.14 19.09, 85.46 32.89 M88.06 -0.5 C87.1 11.89, 86.8 22.21, 86.35 31.38 M87.08 32.47 C60.66 32.82, 30.45 29.79, 0.25 31.2 M86.52 31.18 C53.02 31.08, 18.19 31.82, 0.94 31.88 M-0.33 30.72 C-0.88 19.91, -1.11 8.41, -0.05 1.83 M0.41 32.32 C1 23.72, -0.67 16.2, -0.76 -0.92" stroke="transparent" stroke-width="1" fill="none"></path></g><g transform="translate(674.5860903769818 541.6037590773798) rotate(0 34 10)"><text x="0" y="14" font-family="Virgil, Segoe UI Emoji" font-size="15.939906664182585px" fill="#000000" text-anchor="start" style="white-space: pre;" direction="ltr">makes it</text></g><g stroke-linecap="round" transform="translate(761.76171875 439.7709867794824) rotate(0 78.95094324471665 25.327916763949688)"><path d="M0.72 1.57 C59.35 -0.63, 120.07 0.91, 159.27 -0.23 M-0.02 -0.6 C44.95 -0.8, 90.82 0.21, 157.57 -0.33 M156.4 0.14 C155.87 15.43, 156.34 31.42, 157.79 52.15 M157.1 0.7 C158.61 15.17, 157.49 30.04, 158.44 50.27 M156.33 49.11 C114.89 51.84, 72.28 49.14, -0.11 51.89 M157.25 50.58 C112.85 50.04, 69.61 50.51, -0.55 50.42 M0.65 49.12 C-0.28 33.51, -0.74 18.56, -1.8 0.4 M-0.51 51.09 C0.73 33.93, 0.71 18.64, 0.81 -0.89" stroke="#000000" stroke-width="1" fill="none"></path></g><g transform="translate(775.1713983880895 450.93636660668915) rotate(0 67.5 12.5)"><text x="0" y="17" font-family="Virgil, Segoe UI Emoji" font-size="19.455244742543304px" fill="#000000" text-anchor="start" style="white-space: pre;" direction="ltr">Easy to learn</text></g><g stroke-linecap="round"><g transform="translate(731.8415556219252 533.1814998987885) rotate(0 17.058868046256578 -15.187383762124227)"><path d="M0.63 -0.92 C6.2 -6.38, 28.99 -26.59, 34.62 -31.58 M-0.5 1.2 C4.91 -3.62, 28.51 -25.39, 34.28 -30.53" stroke="#000000" stroke-width="1" fill="none"></path></g><g transform="translate(731.8415556219252 533.1814998987885) rotate(0 17.058868046256578 -15.187383762124227)"><path d="M22.18 -8.51 C26.19 -16.89, 31.61 -26.86, 32.43 -32.11 M23.75 -9.58 C27.05 -15.52, 30.44 -22.21, 33.45 -29.88" stroke="#000000" stroke-width="1" fill="none"></path></g><g transform="translate(731.8415556219252 533.1814998987885) rotate(0 17.058868046256578 -15.187383762124227)"><path d="M11.74 -19.99 C20.01 -23.86, 29.58 -29.27, 32.43 -32.11 M13.31 -21.07 C19.65 -23.67, 26.11 -26.98, 33.45 -29.88" stroke="#000000" stroke-width="1" fill="none"></path></g></g><g stroke-linecap="round" transform="translate(10 247.7397367794824) rotate(0 91.94313074471667 21.47244801394969)"><path d="M0.73 1.96 C70.47 -0.58, 144.69 -1.04, 181.97 0.17 M-0.7 -0.42 C51.59 -0.02, 103.36 -0.37, 183.58 -0.51 M183.81 -0.47 C182.29 15.28, 183.08 32.05, 182.63 43.98 M183.89 -0.46 C183.66 14.68, 183.65 29.91, 183.58 42.3 M182.73 43.47 C126.94 41.92, 71.68 42.09, 0.63 42.91 M183.83 43.79 C133.61 43.51, 84.96 45.15, 0.73 43.9 M1.53 44.47 C1.47 27.47, 0.99 11.16, 1.45 -0.04 M-0.03 42.78 C0.55 26.88, -0.41 9.16, 0.47 0.71" stroke="#000000" stroke-width="1" fill="none"></path></g><g transform="translate(23.17139838808953 257.44417910668915) rotate(0 76 12.5)"><text x="0" y="17" font-family="Virgil, Segoe UI Emoji" font-size="19.455244742543304px" fill="#000000" text-anchor="start" style="white-space: pre;" direction="ltr">Functional style</text></g><g stroke-linecap="round"><g transform="translate(696.059917641569 201.34811993525355) rotate(0 25.41178999286103 8.546199075058038)"><path d="M0.42 -0.21 C8.95 2.93, 43.15 15.2, 51.64 18.46 M-0.82 -1.37 C7.55 1.43, 42.36 13.32, 50.96 16.48" stroke="#000000" stroke-width="1" fill="none"></path></g><g transform="translate(696.059917641569 201.34811993525355) rotate(0 25.41178999286103 8.546199075058038)"><path d="M23.47 17.59 C33.51 16.98, 44.21 18.46, 52.66 16.22 M23.84 17.25 C29.88 16.61, 36.94 16.36, 50.92 17.13" stroke="#000000" stroke-width="1" fill="none"></path></g><g transform="translate(696.059917641569 201.34811993525355) rotate(0 25.41178999286103 8.546199075058038)"><path d="M29.64 0.08 C37.52 5.45, 46.12 12.89, 52.66 16.22 M30.01 -0.26 C34.57 3.27, 40.17 7.16, 50.92 17.13" stroke="#000000" stroke-width="1" fill="none"></path></g></g><g stroke-linecap="round" transform="translate(792.6734673149439 338.7585247769442) rotate(0 35.345585977281075 15.629441266487895)"><path d="M1.87 -0.14 L69.04 -0.19 L69.31 33.22 L-1.4 30.62" stroke="none" stroke-width="0" fill="white"></path><path d="M-1.42 0.64 C21.2 -0.42, 40.53 2.07, 72.11 -0.05 M0.74 0.84 C20.96 0.71, 41.14 -0.52, 69.71 -0.63 M69.39 -1.77 C70.21 11.18, 69.89 18.23, 69.71 31.02 M70.25 -0.93 C69.86 9.91, 70.7 19.35, 69.76 31 M72.02 30.08 C56.18 33.02, 40.97 33.48, -1.68 30.72 M71.46 30.94 C51.5 31.42, 31.48 31.42, -0.08 31.58 M-0.61 32.85 C-0.06 19.29, -0.59 8.82, -0.58 0.93 M0.34 30.93 C-0.01 21.84, -0.61 13.85, -0.74 0.47" stroke="transparent" stroke-width="1" fill="none"></path></g><g transform="translate(796.9862316744897 344.8986809523798) rotate(0 44 10)"><text x="0" y="14" font-family="Virgil, Segoe UI Emoji" font-size="15.939906664182585px" fill="#000000" text-anchor="start" style="white-space: pre;" direction="ltr">because of</text></g><g stroke-linecap="round"><g transform="translate(790.8115889762339 356.0679673070499) rotate(0 -22.444419309349655 -0.30641409049415813)"><path d="M0.85 -0.03 C-6.41 -0.07, -37.23 0.55, -44.74 0.63 M-0.16 -1.09 C-7.49 -1.53, -38.32 -0.89, -45.74 -0.94" stroke="#000000" stroke-width="1" fill="none"></path></g></g><g stroke-linecap="round"><g transform="translate(823.0391532518557 336.96676696837403) rotate(0 0.5567485702266026 -40.60499896187341)"><path d="M-0.35 -0.87 C-0.44 -14.52, 0.39 -69.17, 0.57 -82.5 M1.67 1.29 C1.29 -12.17, -0.26 -67.34, -0.56 -81.35" stroke="#000000" stroke-width="1" fill="none"></path></g><g transform="translate(823.0391532518557 336.96676696837403) rotate(0 0.5567485702266026 -40.60499896187341)"><path d="M8.96 -53.99 C4.99 -64.79, 3.36 -75.75, -0.71 -80.63 M10.04 -53.15 C7.87 -59.29, 5.33 -66.93, -0.4 -81.05" stroke="#000000" stroke-width="1" fill="none"></path></g><g transform="translate(823.0391532518557 336.96676696837403) rotate(0 0.5567485702266026 -40.60499896187341)"><path d="M-11.55 -53.48 C-7.41 -64.42, -0.93 -75.58, -0.71 -80.63 M-10.47 -52.64 C-7.84 -58.75, -5.57 -66.52, -0.4 -81.05" stroke="#000000" stroke-width="1" fill="none"></path></g></g><g stroke-linecap="round"><g transform="translate(824.3863821744901 378.4265587553055) rotate(0 1.9842469132175324 29.769770941869297)"><path d="M0.44 -0.59 C0.74 9.39, 2.18 50.28, 2.64 60.13 M-0.78 1.71 C-0.21 11.31, 4.27 48.68, 4.75 58.27" stroke="#000000" stroke-width="1" fill="none"></path></g><g transform="translate(824.3863821744901 378.4265587553055) rotate(0 1.9842469132175324 29.769770941869297)"><path d="M-8.9 29.28 C-2.34 40.21, -0.34 49.56, 3.79 58.01 M-7.94 31.55 C-3.64 39.12, -0.09 46.41, 4.68 58.77" stroke="#000000" stroke-width="1" fill="none"></path></g><g transform="translate(824.3863821744901 378.4265587553055) rotate(0 1.9842469132175324 29.769770941869297)"><path d="M11.46 27.47 C10.46 39.15, 4.88 49.17, 3.79 58.01 M12.42 29.74 C10.7 37.99, 8.23 45.81, 4.68 58.77" stroke="#000000" stroke-width="1" fill="none"></path></g></g><g transform="translate(966.7888113771999 337.1630871880059) rotate(0 82.99999999999994 12.5)"><text x="0" y="17" font-family="Virgil, Segoe UI Emoji" font-size="19.455244742543304px" fill="#000000" text-anchor="start" style="white-space: pre;" direction="ltr">Powerful libraries</text></g><g stroke-linecap="round" transform="translate(956.3710937500002 328.8471586544824) rotate(0 91.94313074471671 20.560338638949695)"><path d="M1.02 -1.81 C48.54 -1.97, 101.07 -1.32, 184.41 1.96 M-0.39 0.66 C50.76 -0.3, 99.67 -1.28, 184.18 -0.84 M184.87 -0.81 C184.33 16.04, 182.7 30.4, 182.95 42.45 M184.26 -0.37 C183.63 12.5, 183.3 25.84, 184.12 40.52 M184.19 40.11 C130.48 41.41, 74.67 38.27, -0.37 42.84 M184.83 41.81 C141.67 41.35, 100.2 40.45, -0.69 41.31 M1.31 39.72 C-0.55 25.48, -2.05 10.06, 1.73 -0.95 M0.16 41.94 C1.09 25.45, 0.84 10.47, -0.56 0.35" stroke="#000000" stroke-width="1" fill="none"></path></g><g stroke-linecap="round"><g transform="translate(895.1932588314994 351.58694510156283) rotate(0 29.466897006011152 -0.6189117334574163)"><path d="M-0.84 -0.27 C9.25 -0.52, 49.68 -0.98, 59.77 -0.68 M0.92 -1.46 C10.9 -1.67, 49.08 0.04, 58.73 0.24" stroke="#000000" stroke-width="1" fill="none"></path></g><g transform="translate(895.1932588314994 351.58694510156283) rotate(0 29.466897006011152 -0.6189117334574163)"><path d="M29.77 9.25 C35 7.15, 45.46 4.37, 59.96 -1.7 M30.92 8.75 C40.25 5.28, 48.83 3.4, 58.72 1.19" stroke="#000000" stroke-width="1" fill="none"></path></g><g transform="translate(895.1932588314994 351.58694510156283) rotate(0 29.466897006011152 -0.6189117334574163)"><path d="M30.46 -11.25 C35.66 -8.47, 45.95 -6.38, 59.96 -1.7 M31.6 -11.75 C40.73 -8.32, 49.09 -3.3, 58.72 1.19" stroke="#000000" stroke-width="1" fill="none"></path></g></g><g stroke-linecap="round"><g transform="translate(332.204083349919 509.90373216544833) rotate(0 -19.523241914334335 -9.237948214892441)"><path d="M-0.15 0.11 C-6.7 -2.85, -32.37 -14.01, -38.9 -17 M-1.68 -0.87 C-7.89 -4.22, -30.69 -16, -36.58 -18.59" stroke="#000000" stroke-width="1" fill="none"></path></g><g transform="translate(332.204083349919 509.90373216544833) rotate(0 -19.523241914334335 -9.237948214892441)"><path d="M-15.4 -17.69 C-20.94 -19.14, -29.37 -16.65, -36.21 -19.59 M-16.57 -17.39 C-21.59 -16.18, -29.58 -17.09, -36.5 -17.81" stroke="#000000" stroke-width="1" fill="none"></path></g><g transform="translate(332.204083349919 509.90373216544833) rotate(0 -19.523241914334335 -9.237948214892441)"><path d="M-21.69 -4.7 C-25.21 -10.49, -31.52 -12.36, -36.21 -19.59 M-22.85 -4.39 C-25.92 -7.36, -31.9 -12.41, -36.5 -17.81" stroke="#000000" stroke-width="1" fill="none"></path></g></g><g stroke-linecap="round"><g transform="translate(193.34955416359895 397.9863699891456) rotate(0 5.918349070249249 72.91359465021709)"><path d="M0.76 -0.42 C2.7 23.92, 10.21 121.86, 12.14 146.43 M-0.3 -1.69 C1.41 22.74, 9.04 122.55, 11 147.52" stroke="#000000" stroke-width="1" fill="none"></path></g></g></svg>